<?xml version="1.0" encoding="UTF-8" standalone="no"?>
<svg
   version="1.0"
   width="512.000000pt"
   height="512.000000pt"
   viewBox="0 0 512.000000 512.000000"
   preserveAspectRatio="xMidYMid meet"
   id="svg6"
   sodipodi:docname="CIRCUIT.svg"
   inkscape:version="1.1 (c68e22c387, 2021-05-23)"
   inkscape:export-filename="C:\Workspace\ALYSSON\myF1Stats\myF1Stats\assets\icons\circuitDark.png"
   inkscape:export-xdpi="96"
   inkscape:export-ydpi="96"
   xmlns:inkscape="http://www.inkscape.org/namespaces/inkscape"
   xmlns:sodipodi="http://sodipodi.sourceforge.net/DTD/sodipodi-0.dtd"
   xmlns="http://www.w3.org/2000/svg"
   xmlns:svg="http://www.w3.org/2000/svg">
  <defs
     id="defs10" />
  <sodipodi:namedview
     id="namedview8"
     pagecolor="#ffffff"
     bordercolor="#666666"
     borderopacity="1.0"
     inkscape:pageshadow="2"
     inkscape:pageopacity="0.0"
     inkscape:pagecheckerboard="0"
     inkscape:document-units="pt"
     showgrid="false"
     inkscape:zoom="1.2070313"
     inkscape:cx="341.33332"
     inkscape:cy="478.86082"
     inkscape:window-width="2400"
     inkscape:window-height="1284"
     inkscape:window-x="2391"
     inkscape:window-y="-9"
     inkscape:window-maximized="1"
     inkscape:current-layer="svg6" />
  <path
     fill="currentColor"
     d="M -26.32609,398.89239 -149.86744,72.221987 c -4.39231,-11.617218 -13.96347,-19.059176 -24.49793,-19.059176 h -86.24652 l 2.16522,23.642771 c 0.44188,4.818382 -2.83688,9.024266 -7.03476,9.024266 h -25.77055 c -4.19788,0 -7.47665,-4.205884 -7.03476,-9.024266 l 2.16522,-23.642771 h -86.24652 c -10.5433,0 -20.11446,7.441959 -24.50677,19.059176 L -530.41617,398.89239 c -8.17481,21.6317 4.86954,46.2749 24.51561,46.2749 h 173.96009 l 9.1116,-99.71614 c 0.76004,-8.30968 6.82266,-14.6185 14.06069,-14.6185 h 60.80295 c 7.23803,0 13.30065,6.30882 14.06068,14.6185 l 9.11161,99.71614 h 173.96008 c 19.64607,0 32.69042,-24.6432 24.50677,-46.2749 z m -276.4325,-273.08625 a 7.0701109,8.1667599 0 0 1 7.03476,-7.30924 h 34.72308 c 3.6146,0 6.65475,3.15441 7.03476,7.30924 l 4.06532,44.48842 c 0.66282,7.2378 -4.25091,13.53641 -10.54331,13.53641 h -35.82778 c -6.30124,0 -11.20613,-6.29861 -10.54331,-13.53641 z m 48.81912,172.35947 h -48.86331 c -8.39575,0 -14.94444,-8.40155 -14.06068,-18.04854 l 4.48068,-49.00056 c 0.76004,-8.30967 6.82266,-14.6185 14.06069,-14.6185 h 39.90193 c 7.23803,0 13.30065,6.30883 14.06069,14.6185 l 4.48068,49.00056 c 0.88376,9.64699 -5.66493,18.04854 -14.06068,18.04854 z"
     id="path822"
     style="fill:#333333;stroke-width:0.949835" />
  <path
     fill="currentColor"
     d="M 508.04282,405.72734 384.50147,79.05694 C 380.10916,67.43972 370.538,59.99776 360.00354,59.99776 h -86.24652 l 2.16522,23.64277 c 0.44188,4.81838 -2.83688,9.02427 -7.03476,9.02427 h -25.77055 c -4.19788,0 -7.47665,-4.20589 -7.03476,-9.02427 l 2.16522,-23.64277 h -86.24652 c -10.5433,0 -20.11446,7.44196 -24.50677,19.05918 L 3.9527398,405.72734 c -8.17481,21.6317 4.86954,46.2749 24.5156102,46.2749 h 173.96009 l 9.1116,-99.71614 c 0.76004,-8.30968 6.82266,-14.6185 14.06069,-14.6185 h 60.80295 c 7.23803,0 13.30065,6.30882 14.06068,14.6185 l 9.11161,99.71614 h 173.96008 c 19.64607,0 32.69042,-24.6432 24.50677,-46.2749 z M 231.61032,132.64109 a 7.0701109,8.1667599 0 0 1 7.03476,-7.30924 h 34.72308 c 3.6146,0 6.65475,3.15441 7.03476,7.30924 l 4.06532,44.48842 c 0.66282,7.2378 -4.25091,13.53641 -10.54331,13.53641 h -35.82778 c -6.30124,0 -11.20613,-6.29861 -10.54331,-13.53641 z m 48.81912,172.35947 h -48.86331 c -8.39575,0 -14.94444,-8.40155 -14.06068,-18.04854 l 4.48068,-49.00056 c 0.76004,-8.30967 6.82266,-14.6185 14.06069,-14.6185 h 39.90193 c 7.23803,0 13.30065,6.30883 14.06069,14.6185 l 4.48068,49.00056 c 0.88376,9.64699 -5.66493,18.04854 -14.06068,18.04854 z"
     id="path822-9"
     style="fill:#f2f2f2;stroke-width:0.949835" />
</svg>
