<?xml version="1.0" encoding="UTF-8" standalone="no"?>
<svg
   version="1.0"
   width="512.000000pt"
   height="512.000000pt"
   viewBox="0 0 512.000000 512.000000"
   preserveAspectRatio="xMidYMid meet"
   id="svg6"
   sodipodi:docname="CLOCK.svg"
   inkscape:version="1.1 (c68e22c387, 2021-05-23)"
   inkscape:export-filename="C:\Workspace\ALYSSON\myF1Stats\myF1Stats\assets\icons\clockDark.png"
   inkscape:export-xdpi="96"
   inkscape:export-ydpi="96"
   xmlns:inkscape="http://www.inkscape.org/namespaces/inkscape"
   xmlns:sodipodi="http://sodipodi.sourceforge.net/DTD/sodipodi-0.dtd"
   xmlns="http://www.w3.org/2000/svg"
   xmlns:svg="http://www.w3.org/2000/svg">
  <defs
     id="defs10" />
  <sodipodi:namedview
     id="namedview8"
     pagecolor="#ffffff"
     bordercolor="#666666"
     borderopacity="1.0"
     inkscape:pageshadow="2"
     inkscape:pageopacity="0.0"
     inkscape:pagecheckerboard="0"
     inkscape:document-units="pt"
     showgrid="false"
     inkscape:zoom="1.2070313"
     inkscape:cx="341.33332"
     inkscape:cy="341.33332"
     inkscape:window-width="2400"
     inkscape:window-height="1284"
     inkscape:window-x="2391"
     inkscape:window-y="-9"
     inkscape:window-maximized="1"
     inkscape:current-layer="svg6" />
  <path
     fill="currentColor"
     d="M 256,58.194174 C 146.72823,58.194174 58.194175,146.72823 58.194175,256 58.194175,365.27177 146.72823,453.80582 256,453.80582 365.27177,453.80582 453.80582,365.27177 453.80582,256 453.80582,146.72823 365.27177,58.194174 256,58.194174 Z m 0,357.326656 C 167.86474,415.52083 96.479174,344.13526 96.479174,256 96.479174,167.86474 167.86474,96.479174 256,96.479174 c 88.13526,0 159.52083,71.385566 159.52083,159.520826 0,88.13526 -71.38557,159.52083 -159.52083,159.52083 z m 49.29194,-83.26987 -67.7166,-49.21218 c -2.47257,-1.83449 -3.90826,-4.70586 -3.90826,-7.73676 v -130.9666 c 0,-5.26419 4.30707,-9.57125 9.57125,-9.57125 h 25.52334 c 5.26418,0 9.57125,4.30706 9.57125,9.57125 v 113.02051 l 53.27995,38.76356 c 4.30706,3.11065 5.18443,9.09268 2.07377,13.39975 l -14.99496,20.65794 c -3.11065,4.22731 -9.09268,5.18443 -13.39974,2.07378 z"
     id="path822"
     style="stroke-width:0.797604;fill:#f2f2f2" />
  <path
     fill="currentColor"
     d="m 807.1456,-13.883503 c -109.27177,0 -197.80582,88.53406 -197.80582,197.805833 0,109.27177 88.53405,197.80582 197.80582,197.80582 109.27177,0 197.8058,-88.53405 197.8058,-197.80582 0,-109.271773 -88.53403,-197.805833 -197.8058,-197.805833 z m 0,357.326663 c -88.13526,0 -159.52083,-71.38557 -159.52083,-159.52083 0,-88.135263 71.38557,-159.520833 159.52083,-159.520833 88.13526,0 159.52083,71.38557 159.52083,159.520833 0,88.13526 -71.38557,159.52083 -159.52083,159.52083 z m 49.29194,-83.26987 -67.7166,-49.21218 c -2.47257,-1.83449 -3.90826,-4.70586 -3.90826,-7.73676 V 72.257747 c 0,-5.26419 4.30707,-9.57125 9.57125,-9.57125 h 25.52334 c 5.26418,0 9.57125,4.30706 9.57125,9.57125 V 185.27826 l 53.27995,38.76356 c 4.30706,3.11065 5.18443,9.09268 2.07377,13.39975 l -14.99496,20.65794 c -3.11065,4.22731 -9.09268,5.18443 -13.39974,2.07378 z"
     id="path822-4"
     style="fill:#333333;stroke-width:0.797604" />
</svg>
