<?xml version="1.0" encoding="UTF-8" standalone="no"?>
<svg
   version="1.0"
   width="512.000000pt"
   height="512.000000pt"
   viewBox="0 0 512.000000 512.000000"
   preserveAspectRatio="xMidYMid meet"
   id="svg6"
   sodipodi:docname="CONSTRUCTOR.svg"
   inkscape:version="1.1 (c68e22c387, 2021-05-23)"
   inkscape:export-filename="C:\Workspace\ALYSSON\myF1Stats\myF1Stats\assets\icons\constructorsDark.png"
   inkscape:export-xdpi="96"
   inkscape:export-ydpi="96"
   xmlns:inkscape="http://www.inkscape.org/namespaces/inkscape"
   xmlns:sodipodi="http://sodipodi.sourceforge.net/DTD/sodipodi-0.dtd"
   xmlns="http://www.w3.org/2000/svg"
   xmlns:svg="http://www.w3.org/2000/svg">
  <defs
     id="defs10" />
  <sodipodi:namedview
     id="namedview8"
     pagecolor="#ffffff"
     bordercolor="#666666"
     borderopacity="1.0"
     inkscape:pageshadow="2"
     inkscape:pageopacity="0.0"
     inkscape:pagecheckerboard="0"
     inkscape:document-units="pt"
     showgrid="false"
     inkscape:zoom="1.2070313"
     inkscape:cx="357.9029"
     inkscape:cy="341.33332"
     inkscape:window-width="2400"
     inkscape:window-height="1284"
     inkscape:window-x="2391"
     inkscape:window-y="-9"
     inkscape:window-maximized="1"
     inkscape:current-layer="svg6" />
  <path
     fill="currentColor"
     d="m 77.561165,227.93454 c 28.120045,0 50.982525,-25.17122 50.982525,-56.13094 0,-30.9597 -22.86248,-56.13092 -50.982525,-56.13092 -28.12005,0 -50.98252,25.17122 -50.98252,56.13092 0,30.95972 22.86247,56.13094 50.98252,56.13094 z m 356.877655,0 c 28.1201,0 50.9825,-25.17122 50.9825,-56.13094 0,-30.9597 -22.8624,-56.13092 -50.9825,-56.13092 -28.12,0 -50.98251,25.17122 -50.98251,56.13092 0,30.95972 22.86251,56.13094 50.98251,56.13094 z M 459.93012,256 h -50.9825 c -14.02024,0 -26.68621,6.22702 -35.9268,16.31306 32.1031,19.3827 54.8859,54.37683 59.8248,95.9488 h 52.5757 c 14.0999,0 25.4913,-12.54176 25.4913,-28.06546 V 312.13092 C 510.91262,281.17122 488.05012,256 459.93012,256 Z M 256,256 c 49.30966,0 89.21942,-43.94 89.21942,-98.22913 0,-54.28913 -39.90976,-98.229121 -89.21942,-98.229121 -49.30966,0 -89.21942,43.939991 -89.21942,98.229121 C 166.78058,212.06 206.69034,256 256,256 Z m 61.17903,28.06546 h -6.6118 c -16.56932,8.77046 -34.97082,14.03273 -54.56723,14.03273 -19.59641,0 -37.91825,-5.26227 -54.56723,-14.03273 h -6.6118 c -50.66388,0 -91.76854,45.25556 -91.76854,101.03568 v 25.25891 c 0,23.24171 17.12694,42.0982 38.23689,42.0982 h 229.42136 c 21.10995,0 38.23694,-18.85649 38.23694,-42.0982 v -25.25891 c 0,-55.78012 -41.10471,-101.03568 -91.76859,-101.03568 z M 138.97918,272.31306 C 129.73859,262.22702 117.07262,256 103.05243,256 H 52.069905 c -28.12005,0 -50.98253,25.17122 -50.98253,56.13092 v 28.06548 c 0,15.5237 11.39141,28.06546 25.49127,28.06546 h 52.49607 c 5.01859,-41.57197 27.801415,-76.5661 59.904465,-95.9488 z"
     id="path822"
     style="fill:#f2f2f2;stroke-width:0.835857" />
  <path
     fill="currentColor"
     d="m -646.94366,183.19668 c 28.12004,0 50.98253,-25.17122 50.98253,-56.13094 0,-30.959704 -22.86249,-56.130924 -50.98253,-56.130924 -28.12005,0 -50.98252,25.17122 -50.98252,56.130924 0,30.95972 22.86247,56.13094 50.98252,56.13094 z m 356.87766,0 c 28.12005,0 50.98253,-25.17122 50.98253,-56.13094 0,-30.959704 -22.86248,-56.130924 -50.98253,-56.130924 -28.12003,0 -50.9825,25.17122 -50.9825,56.130924 0,30.95972 22.86247,56.13094 50.9825,56.13094 z m 25.49127,28.06546 h -50.98253 c -14.02018,0 -26.68615,6.22702 -35.92674,16.31306 32.10305,19.3827 54.88587,54.37683 59.8248,95.9488 h 52.57573 c 14.09985,0 25.49126,-12.54176 25.49126,-28.06546 v -28.06548 c 0,-30.9597 -22.86246,-56.13092 -50.98252,-56.13092 z m -203.93008,0 c 49.30966,0 89.21941,-43.94 89.21941,-98.22913 0,-54.289132 -39.90975,-98.229122 -89.21941,-98.229122 -49.30966,0 -89.21943,43.93999 -89.21943,98.229122 0,54.28913 39.90977,98.22913 89.21943,98.22913 z m 61.17902,28.06546 h -6.6118 c -16.56931,8.77046 -34.97081,14.03273 -54.56722,14.03273 -19.59641,0 -37.91825,-5.26227 -54.56723,-14.03273 h -6.61181 c -50.66388,0 -91.76854,45.25556 -91.76854,101.03568 v 25.25891 c 0,23.24171 17.12694,42.0982 38.23689,42.0982 h 229.42136 c 21.10995,0 38.23688,-18.85649 38.23688,-42.0982 v -25.25891 c 0,-55.78012 -41.10465,-101.03568 -91.76853,-101.03568 z m -178.19985,-11.7524 c -9.24059,-10.08604 -21.90656,-16.31306 -35.92675,-16.31306 h -50.98253 c -28.12005,0 -50.98253,25.17122 -50.98253,56.13092 v 28.06548 c 0,15.5237 11.39141,28.06546 25.49127,28.06546 h 52.49607 c 5.01859,-41.57197 27.8014,-76.5661 59.90447,-95.9488 z"
     id="path822-0"
     style="fill:#333333;stroke-width:0.835857" />
</svg>
