<?xml version="1.0" encoding="UTF-8" standalone="no"?>
<svg
   version="1.0"
   width="512.000000pt"
   height="512.000000pt"
   viewBox="0 0 512.000000 512.000000"
   preserveAspectRatio="xMidYMid meet"
   id="svg6"
   sodipodi:docname="DOWN.svg"
   inkscape:version="1.1 (c68e22c387, 2021-05-23)"
   inkscape:export-filename="C:\Workspace\ALYSSON\myF1Stats\myF1Stats\assets\icons\downLight.png"
   inkscape:export-xdpi="96"
   inkscape:export-ydpi="96"
   xmlns:inkscape="http://www.inkscape.org/namespaces/inkscape"
   xmlns:sodipodi="http://sodipodi.sourceforge.net/DTD/sodipodi-0.dtd"
   xmlns="http://www.w3.org/2000/svg"
   xmlns:svg="http://www.w3.org/2000/svg">
  <defs
     id="defs10" />
  <sodipodi:namedview
     id="namedview8"
     pagecolor="#ffffff"
     bordercolor="#666666"
     borderopacity="1.0"
     inkscape:pageshadow="2"
     inkscape:pageopacity="0.0"
     inkscape:pagecheckerboard="0"
     inkscape:document-units="pt"
     showgrid="false"
     inkscape:zoom="1.2070313"
     inkscape:cx="341.33332"
     inkscape:cy="341.33332"
     inkscape:window-width="2400"
     inkscape:window-height="1284"
     inkscape:window-x="2391"
     inkscape:window-y="-9"
     inkscape:window-maximized="1"
     inkscape:current-layer="svg6" />
  <path
     fill="currentColor"
     d="M -346.16871,531.60582 -561.7576,316.01693 c -14.90099,-14.901 -14.90099,-38.99623 0,-53.73871 l 35.8258,-35.8258 c 14.901,-14.90099 38.99623,-14.90099 53.7387,0 l 152.81448,152.81448 152.81448,-152.81448 c 14.90099,-14.90099 38.99622,-14.90099 53.7387,0 l 35.825803,35.8258 c 14.901,14.901 14.901,38.99623 0,53.73871 L -292.58853,531.60582 c -14.58395,14.90099 -38.67918,14.90099 -53.58018,0 z"
     id="path822"
     style="fill:#333333;stroke-width:1.58521" />
  <path
     fill="currentColor"
     d="M 229.20989,408.5767 13.620991,192.98781 c -14.9009898,-14.901 -14.9009898,-38.99623 0,-53.73871 l 35.82581,-35.8258 c 14.901,-14.900988 38.99622,-14.900988 53.738699,0 L 255.99998,256.23778 408.81446,103.4233 c 14.90099,-14.900988 38.99624,-14.900988 53.73874,0 l 35.8258,35.8258 c 14.901,14.901 14.901,38.99623 0,53.73871 L 282.79007,408.5767 c -14.58395,14.90099 -38.67918,14.90099 -53.58018,0 z"
     id="path822-6"
     style="fill:#f2f2f2;stroke-width:1.58521" />
</svg>
