<?xml version="1.0" encoding="UTF-8" standalone="no"?>
<svg
   version="1.0"
   width="512.000000pt"
   height="512.000000pt"
   viewBox="0 0 512.000000 512.000000"
   preserveAspectRatio="xMidYMid meet"
   id="svg6"
   sodipodi:docname="HOME.svg"
   inkscape:version="1.1 (c68e22c387, 2021-05-23)"
   inkscape:export-filename="C:\Workspace\ALYSSON\myF1Stats\myF1Stats\assets\icons\homeDark.png"
   inkscape:export-xdpi="96"
   inkscape:export-ydpi="96"
   xmlns:inkscape="http://www.inkscape.org/namespaces/inkscape"
   xmlns:sodipodi="http://sodipodi.sourceforge.net/DTD/sodipodi-0.dtd"
   xmlns="http://www.w3.org/2000/svg"
   xmlns:svg="http://www.w3.org/2000/svg">
  <defs
     id="defs10" />
  <sodipodi:namedview
     id="namedview8"
     pagecolor="#ffffff"
     bordercolor="#666666"
     borderopacity="1.0"
     inkscape:pageshadow="2"
     inkscape:pageopacity="0.0"
     inkscape:pagecheckerboard="0"
     inkscape:document-units="pt"
     showgrid="false"
     inkscape:zoom="1.2070313"
     inkscape:cx="341.33333"
     inkscape:cy="341.33333"
     inkscape:window-width="2400"
     inkscape:window-height="1284"
     inkscape:window-x="2391"
     inkscape:window-y="-9"
     inkscape:window-maximized="1"
     inkscape:current-layer="svg6" />
  <path
     fill="currentColor"
     d="M -337.26564,142.1617 -499.07148,275.42751 V 419.2598 a 14.041837,14.041837 0 0 0 14.04184,14.04183 l 98.34551,-0.2545 a 14.041837,14.041837 0 0 0 13.97163,-14.04184 v -83.99651 a 14.041837,14.041837 0 0 1 14.04183,-14.04184 h 56.16735 a 14.041837,14.041837 0 0 1 14.04184,14.04184 v 83.93508 a 14.041837,14.041837 0 0 0 14.04183,14.08571 l 98.31041,0.27206 A 14.041837,14.041837 0 0 0 -162.0674,419.2598 V 275.33097 L -323.83813,142.1617 a 10.698124,10.698124 0 0 0 -13.42751,0 z m 255.587763,90.57862 -73.368603,-60.47643 V 50.705466 a 10.531378,10.531378 0 0 0 -10.53138,-10.531377 h -49.14643 a 10.531378,10.531378 0 0 0 -10.53137,10.531377 v 63.723604 l -78.57286,-64.645099 a 42.12551,42.12551 0 0 0 -53.5345,0 L -579.51365,232.74032 a 10.531378,10.531378 0 0 0 -1.40418,14.83169 l 22.37917,27.20606 a 10.531378,10.531378 0 0 0 14.84047,1.43052 l 206.43255,-170.0291 a 10.698124,10.698124 0 0 1 13.42751,0 l 206.44132,170.0291 a 10.531378,10.531378 0 0 0 14.83169,-1.40419 l 22.379183,-27.20606 a 10.531378,10.531378 0 0 0 -1.49194,-14.85802 z"
     id="path839"
     style="fill:#333333;stroke:none;stroke-width:0.877615" />
  <path
     fill="currentColor"
     d="M 249.29747,161.42385 87.491627,294.68965 v 143.83229 a 14.041837,14.041837 0 0 0 14.041843,14.04183 l 98.34551,-0.2545 a 14.041837,14.041837 0 0 0 13.97163,-14.04184 v -83.99651 a 14.041837,14.041837 0 0 1 14.04183,-14.04184 h 56.16735 a 14.041837,14.041837 0 0 1 14.04184,14.04184 V 438.206 a 14.041837,14.041837 0 0 0 14.04183,14.08571 l 98.31041,0.27206 a 14.041837,14.041837 0 0 0 14.04184,-14.04183 V 294.59311 L 262.72498,161.42385 a 10.698124,10.698124 0 0 0 -13.42751,0 z m 255.58779,90.57861 -73.36863,-60.47643 V 69.967608 A 10.531378,10.531378 0 0 0 420.98525,59.436231 H 371.83882 A 10.531378,10.531378 0 0 0 361.30745,69.967608 V 133.69122 L 282.73459,69.046113 a 42.12551,42.12551 0 0 0 -53.5345,0 L 7.0494574,252.00246 a 10.531378,10.531378 0 0 0 -1.40419,14.83169 l 22.3791796,27.20606 a 10.531378,10.531378 0 0 0 14.84047,1.43052 L 249.29747,125.44164 a 10.698124,10.698124 0 0 1 13.42751,0 l 206.44128,170.02909 a 10.531378,10.531378 0 0 0 14.8317,-1.40419 l 22.3792,-27.20606 a 10.531378,10.531378 0 0 0 -1.4919,-14.85802 z"
     id="path839-1"
     style="fill:#f2f2f2;stroke:none;stroke-width:0.877615" />
</svg>
