<?xml version="1.0" encoding="UTF-8" standalone="no"?>
<svg
   id="svg"
   version="1.1"
   width="400"
   height="400"
   viewBox="0, 0, 400,400"
   sodipodi:docname="LOGO.svg"
   inkscape:version="1.1 (c68e22c387, 2021-05-23)"
   inkscape:export-filename="C:\Workspace\ALYSSON\myF1Stats\myF1Stats\assets\icons\logoDark.png"
   inkscape:export-xdpi="96"
   inkscape:export-ydpi="96"
   xmlns:inkscape="http://www.inkscape.org/namespaces/inkscape"
   xmlns:sodipodi="http://sodipodi.sourceforge.net/DTD/sodipodi-0.dtd"
   xmlns="http://www.w3.org/2000/svg"
   xmlns:svg="http://www.w3.org/2000/svg">
  <defs
     id="defs11" />
  <sodipodi:namedview
     id="namedview9"
     pagecolor="#ffffff"
     bordercolor="#666666"
     borderopacity="1.0"
     inkscape:pageshadow="2"
     inkscape:pageopacity="0.0"
     inkscape:pagecheckerboard="0"
     showgrid="false"
     showguides="true"
     inkscape:guide-bbox="true"
     inkscape:zoom="1.03"
     inkscape:cx="526.21359"
     inkscape:cy="109.70874"
     inkscape:window-width="2400"
     inkscape:window-height="1284"
     inkscape:window-x="2391"
     inkscape:window-y="-9"
     inkscape:window-maximized="1"
     inkscape:current-layer="svgg" />
  <g
     id="svgg">
    <path
       fill="currentColor"
       d="M 393.90435,19.946975 V 310.80186 c -54.53525,19.90971 -70.9824,27.70047 -103.01106,27.70047 -54.5353,0 -75.31064,-27.70047 -129.84594,-27.70047 -17.31279,0 -31.16302,3.46256 -44.14761,6.92512 v -55.40093 c 12.98459,-3.46256 26.83482,-6.92512 44.14761,-6.92512 54.5353,0 75.31064,27.70047 129.84594,27.70047 17.31279,0 30.29738,-2.59692 47.61017,-7.79076 V 95.257616 c -17.31279,5.193834 -30.29738,7.790754 -47.61017,7.790754 -54.5353,0 -75.31064,-27.700464 -129.84594,-27.700464 -44.14761,0 -64.922963,18.17843 -99.548545,25.103544 V 366.20279 A 27.354209,27.354209 0 0 1 33.79834,393.90326 27.354209,27.354209 0 0 1 6.0978744,366.20279 V 33.797208 A 27.354209,27.354209 0 0 1 33.79834,6.0967428 27.354209,27.354209 0 0 1 61.498805,33.797208 v 11.253314 c 34.625582,-6.925116 55.400935,-25.103547 99.548545,-25.103547 54.5353,0 75.31064,27.700466 129.84594,27.700466 32.02866,0 48.47581,-7.790756 103.01106,-27.700466 z"
       id="path837"
       style="stroke-width:0.86564;fill:#f2f2f2" />
    <path
       fill="currentColor"
       d="M 1013.3218,-8.2083728 V 282.64652 c -54.53523,19.90971 -70.98238,27.70047 -103.01104,27.70047 -54.5353,0 -75.31064,-27.70047 -129.84594,-27.70047 -17.31279,0 -31.16302,3.46256 -44.14761,6.92512 v -55.40093 c 12.98459,-3.46256 26.83482,-6.92512 44.14761,-6.92512 54.5353,0 75.31064,27.70047 129.84594,27.70047 17.31279,0 30.29738,-2.59692 47.61017,-7.79076 V 67.102277 c -17.31279,5.19383 -30.29738,7.79075 -47.61017,7.79075 -54.5353,0 -75.31064,-27.70046 -129.84594,-27.70046 -44.14761,0 -64.92296,18.17843 -99.54854,25.10354 V 338.04745 a 27.354209,27.354209 0 0 1 -27.70047,27.70047 27.354209,27.354209 0 0 1 -27.70047,-27.70047 V 5.6418672 A 27.354209,27.354209 0 0 1 653.21581,-22.058603 27.354209,27.354209 0 0 1 680.91627,5.6418672 V 16.895177 c 34.62559,-6.9251098 55.40094,-25.1035498 99.54855,-25.1035498 54.5353,0 75.31064,27.7004698 129.84594,27.7004698 32.02866,0 48.47581,-7.79076 103.01104,-27.7004698 z"
       id="path837-8"
       style="fill:#333333;stroke-width:0.86564" />
  </g>
</svg>
