<?xml version="1.0" encoding="UTF-8" standalone="no"?>
<svg
   version="1.0"
   width="512.000000pt"
   height="512.000000pt"
   viewBox="0 0 512.000000 512.000000"
   preserveAspectRatio="xMidYMid meet"
   id="svg6"
   sodipodi:docname="MEDAL.svg"
   inkscape:version="1.1 (c68e22c387, 2021-05-23)"
   inkscape:export-filename="C:\Workspace\ALYSSON\myF1Stats\myF1Stats\assets\icons\medalLight.png"
   inkscape:export-xdpi="96"
   inkscape:export-ydpi="96"
   xmlns:inkscape="http://www.inkscape.org/namespaces/inkscape"
   xmlns:sodipodi="http://sodipodi.sourceforge.net/DTD/sodipodi-0.dtd"
   xmlns="http://www.w3.org/2000/svg"
   xmlns:svg="http://www.w3.org/2000/svg">
  <defs
     id="defs10" />
  <sodipodi:namedview
     id="namedview8"
     pagecolor="#ffffff"
     bordercolor="#666666"
     borderopacity="1.0"
     inkscape:pageshadow="2"
     inkscape:pageopacity="0.0"
     inkscape:pagecheckerboard="0"
     inkscape:document-units="pt"
     showgrid="false"
     inkscape:zoom="1.2070313"
     inkscape:cx="341.33332"
     inkscape:cy="341.33332"
     inkscape:window-width="2400"
     inkscape:window-height="1284"
     inkscape:window-x="2391"
     inkscape:window-y="-9"
     inkscape:window-maximized="1"
     inkscape:current-layer="svg6" />
  <path
     fill="currentColor"
     d="M 231.02973,159.02245 177.50432,69.818594 A 24.774376,24.774376 0 0 0 156.2583,57.786408 H 70.19799 c -10.02682,0 -15.8958,11.281142 -10.15071,19.496166 l 86.15323,123.078256 c 23.01136,-21.50153 52.27883,-36.25916 84.82922,-41.33838 z M 441.80201,57.786408 H 355.7417 c -8.70282,0 -16.77073,4.568204 -21.24602,12.032186 l -53.52541,89.203856 c 32.55039,5.07922 61.81786,19.83685 84.82922,41.33063 L 451.95272,77.282574 c 5.7451,-8.215024 -0.12389,-19.496166 -10.15071,-19.496166 z M 256,181.6699 c -75.25922,0 -136.27184,61.01262 -136.27184,136.27185 0,75.25922 61.01262,136.27184 136.27184,136.27184 75.25922,0 136.27184,-61.01262 136.27184,-136.27184 C 392.27184,242.68252 331.25922,181.6699 256,181.6699 Z m 71.63563,121.76199 -29.36813,28.61709 6.94522,40.43248 c 1.23883,7.24718 -6.39549,12.78322 -12.89163,9.36094 L 256,362.7566 219.68665,381.8424 c -6.50388,3.44551 -14.13046,-2.1215 -12.89163,-9.36094 l 6.94522,-40.43248 -29.36813,-28.61709 c -5.28053,-5.14116 -2.36153,-14.11497 4.91663,-15.16798 l 40.59507,-5.91544 18.14119,-36.7934 c 1.63371,-3.31388 4.79274,-4.94759 7.95951,-4.94759 3.18226,0 6.36452,1.65694 7.99823,4.94759 l 18.14119,36.7934 40.59507,5.91544 c 7.27816,1.05301 10.19716,10.02682 4.91663,15.16798 z"
     id="path822"
     style="fill:#333333;stroke-width:0.774272" />
  <path
     fill="currentColor"
     d="M 759.18505,84.459346 705.65964,-4.7445058 A 24.774376,24.774376 0 0 0 684.41362,-16.776692 h -86.06031 c -10.02682,0 -15.8958,11.2811422 -10.15071,19.4961664 L 674.35583,125.79772 c 23.01136,-21.50153 52.27883,-36.259156 84.82922,-41.338374 z M 969.95732,-16.776692 h -86.0603 c -8.70282,0 -16.77073,4.568204 -21.24602,12.0321862 L 809.12559,84.459346 c 32.55039,5.079218 61.81786,19.836844 84.82922,41.330624 L 980.10803,2.7194744 c 5.7451,-8.2150242 -0.12389,-19.4961664 -10.15071,-19.4961664 z m -185.802,123.883482 c -75.25922,0 -136.27184,61.01262 -136.27184,136.27185 0,75.25922 61.01262,136.27184 136.27184,136.27184 75.25922,0 136.27184,-61.01262 136.27184,-136.27184 0,-75.25923 -61.01262,-136.27185 -136.27184,-136.27185 z m 71.63563,121.76199 -29.36813,28.61709 6.94522,40.43248 c 1.23883,7.24718 -6.39549,12.78322 -12.89163,9.36094 l -36.32109,-19.0858 -36.31335,19.0858 c -6.50388,3.44551 -14.13046,-2.1215 -12.89163,-9.36094 l 6.94522,-40.43248 -29.36813,-28.61709 c -5.28053,-5.14116 -2.36153,-14.11497 4.91663,-15.16798 l 40.59507,-5.91544 18.14119,-36.7934 c 1.63371,-3.31388 4.79274,-4.94759 7.95951,-4.94759 3.18226,0 6.36452,1.65694 7.99823,4.94759 l 18.14119,36.7934 40.59507,5.91544 c 7.27816,1.05301 10.19716,10.02682 4.91663,15.16798 z"
     id="path822-1"
     style="fill:#f2f2f2;stroke-width:0.774272" />
</svg>
