<?xml version="1.0" encoding="UTF-8" standalone="no"?>
<svg
   version="1.0"
   width="512.000000pt"
   height="512.000000pt"
   viewBox="0 0 512.000000 512.000000"
   preserveAspectRatio="xMidYMid meet"
   id="svg6"
   sodipodi:docname="PILOT.svg"
   inkscape:version="1.1 (c68e22c387, 2021-05-23)"
   inkscape:export-filename="C:\Workspace\ALYSSON\myF1Stats\myF1Stats\assets\icons\pilotsDark.png"
   inkscape:export-xdpi="96"
   inkscape:export-ydpi="96"
   xmlns:inkscape="http://www.inkscape.org/namespaces/inkscape"
   xmlns:sodipodi="http://sodipodi.sourceforge.net/DTD/sodipodi-0.dtd"
   xmlns="http://www.w3.org/2000/svg"
   xmlns:svg="http://www.w3.org/2000/svg">
  <defs
     id="defs10" />
  <sodipodi:namedview
     id="namedview8"
     pagecolor="#ffffff"
     bordercolor="#666666"
     borderopacity="1.0"
     inkscape:pageshadow="2"
     inkscape:pageopacity="0.0"
     inkscape:pagecheckerboard="0"
     inkscape:document-units="pt"
     showgrid="false"
     inkscape:zoom="1.2070313"
     inkscape:cx="341.33332"
     inkscape:cy="341.33332"
     inkscape:window-width="2400"
     inkscape:window-height="1284"
     inkscape:window-x="2391"
     inkscape:window-y="-9"
     inkscape:window-maximized="1"
     inkscape:current-layer="svg6" />
  <path
     fill="currentColor"
     d="m 745.63105,229.4369 c 60.58981,0 109.74757,-49.15777 109.74757,-109.74757 0,-60.589814 -49.15776,-109.7475842 -109.74757,-109.7475842 -60.58981,0 -109.74757,49.1577702 -109.74757,109.7475842 0,60.5898 49.15776,109.74757 109.74757,109.74757 z m 97.5534,24.38835 h -41.99369 c -16.91942,7.77379 -35.74418,12.19417 -55.55971,12.19417 -19.81553,0 -38.56408,-4.42038 -55.55971,-12.19417 h -41.99369 c -53.88301,0 -97.5534,43.67039 -97.5534,97.5534 v 12.19417 c 0,20.1966 16.38592,36.58253 36.58252,36.58253 h 317.04855 c 20.1966,0 36.58253,-16.38593 36.58253,-36.58253 v -12.19417 c 0,-53.88301 -43.67039,-97.5534 -97.5534,-97.5534 z"
     id="path822"
     style="fill:#333333;stroke-width:0.762136" />
  <path
     fill="currentColor"
     d="m 255.99999,280.38835 c 60.58981,0 109.74757,-49.15777 109.74757,-109.74757 0,-60.58981 -49.15776,-109.74758 -109.74757,-109.74758 -60.5898,0 -109.74756,49.15777 -109.74756,109.74758 0,60.5898 49.15776,109.74757 109.74756,109.74757 z m 97.5534,24.38835 H 311.5597 c -16.91942,7.77379 -35.74418,12.19417 -55.55971,12.19417 -19.81553,0 -38.56407,-4.42038 -55.5597,-12.19417 H 158.4466 c -53.88302,0 -97.553397,43.67039 -97.553397,97.5534 v 12.19417 c 0,20.1966 16.38592,36.58253 36.58252,36.58253 H 414.52426 c 20.19661,0 36.58254,-16.38593 36.58254,-36.58253 V 402.3301 c 0,-53.88301 -43.6704,-97.5534 -97.55341,-97.5534 z"
     id="path822-6"
     style="fill:#f2f2f2;stroke-width:0.762136" />
</svg>
