<?xml version="1.0" encoding="UTF-8" standalone="no"?>
<svg
   version="1.0"
   width="512.000000pt"
   height="512.000000pt"
   viewBox="0 0 512.000000 512.000000"
   preserveAspectRatio="xMidYMid meet"
   id="svg6"
   sodipodi:docname="POSITION.svg"
   inkscape:version="1.1 (c68e22c387, 2021-05-23)"
   inkscape:export-filename="C:\Workspace\ALYSSON\myF1Stats\myF1Stats\assets\icons\podiumLight.png"
   inkscape:export-xdpi="96"
   inkscape:export-ydpi="96"
   xmlns:inkscape="http://www.inkscape.org/namespaces/inkscape"
   xmlns:sodipodi="http://sodipodi.sourceforge.net/DTD/sodipodi-0.dtd"
   xmlns="http://www.w3.org/2000/svg"
   xmlns:svg="http://www.w3.org/2000/svg">
  <defs
     id="defs10" />
  <sodipodi:namedview
     id="namedview8"
     pagecolor="#ffffff"
     bordercolor="#666666"
     borderopacity="1.0"
     inkscape:pageshadow="2"
     inkscape:pageopacity="0.0"
     inkscape:pagecheckerboard="0"
     inkscape:document-units="pt"
     showgrid="false"
     inkscape:zoom="0.60351565"
     inkscape:cx="122.61488"
     inkscape:cy="607.27506"
     inkscape:window-width="1920"
     inkscape:window-height="1013"
     inkscape:window-x="-9"
     inkscape:window-y="-9"
     inkscape:window-maximized="1"
     inkscape:current-layer="svg6"
     showguides="true"
     inkscape:guide-bbox="true">
    <sodipodi:guide
       position="-433.08735,126.13593"
       orientation="0,-1"
       id="guide987" />
    <sodipodi:guide
       position="-348.5825,198.83496"
       orientation="0,-1"
       id="guide1027" />
  </sodipodi:namedview>
  <path
     fill="currentColor"
     d="m 285.55354,58.912627 h -59.10708 c -10.88556,0 -19.70236,8.816806 -19.70236,19.702361 V 433.38501 c 0,10.88555 8.8168,19.70236 19.70236,19.70236 h 59.10708 c 10.88556,0 19.70236,-8.81681 19.70236,-19.70236 V 78.614988 c 0,-10.885555 -8.8168,-19.702361 -19.70236,-19.702361 z M 127.93465,295.46848 H 68.827565 c -10.88555,0 -19.70236,8.81681 -19.70236,19.70236 v 118.21417 c 0,10.88555 8.81681,19.70236 19.70236,19.70236 h 59.107085 c 10.88556,0 19.70236,-8.81681 19.70236,-19.70236 V 315.17084 c 0,-10.88555 -8.8168,-19.70236 -19.70236,-19.70236 z M 443.17243,178.40202 h -59.10708 c -10.88556,0 -19.70236,8.81681 -19.70236,19.70236 v 235.28063 c 0,10.88555 8.8168,19.70236 19.70236,19.70236 h 59.10708 c 10.88556,0 19.70236,-8.81681 19.70236,-19.70236 V 198.10438 c 0,-10.88555 -8.8168,-19.70236 -19.70236,-19.70236 z"
     id="path822-7"
     style="fill:#333333;stroke-width:1.2314"
     sodipodi:nodetypes="sssssssssssssssssssssssssss" />
  <path
     fill="currentColor"
     d="m 694.40789,514.99028 h -59.10708 c -10.88556,0 -19.70236,8.81681 -19.70236,19.70237 v 354.77001 c 0,10.88555 8.8168,19.70236 19.70236,19.70236 h 59.10708 c 10.88556,0 19.70236,-8.81681 19.70236,-19.70236 V 534.69265 c 0,-10.88556 -8.8168,-19.70237 -19.70236,-19.70237 z M 536.789,751.54613 h -59.10709 c -10.88555,0 -19.70236,8.81681 -19.70236,19.70236 v 118.21417 c 0,10.88555 8.81681,19.70236 19.70236,19.70236 H 536.789 c 10.88556,0 19.70236,-8.81681 19.70236,-19.70236 V 771.24849 c 0,-10.88555 -8.8168,-19.70236 -19.70236,-19.70236 z M 852.02679,634.47967 H 792.9197 c -10.88556,0 -19.70236,8.81681 -19.70236,19.70236 v 235.28063 c 0,10.88555 8.8168,19.70236 19.70236,19.70236 h 59.10709 c 10.88556,0 19.70236,-8.81681 19.70236,-19.70236 V 654.18203 c 0,-10.88555 -8.8168,-19.70236 -19.70236,-19.70236 z"
     id="path822-7-2"
     style="fill:#f2f2f2;stroke-width:1.2314"
     sodipodi:nodetypes="sssssssssssssssssssssssssss" />
</svg>
