<?xml version="1.0" encoding="UTF-8" standalone="no"?>
<svg
   version="1.0"
   width="512.000000pt"
   height="512.000000pt"
   viewBox="0 0 512.000000 512.000000"
   preserveAspectRatio="xMidYMid meet"
   id="svg6"
   sodipodi:docname="POINTS.svg"
   inkscape:version="1.1 (c68e22c387, 2021-05-23)"
   inkscape:export-filename="C:\Workspace\ALYSSON\myF1Stats\myF1Stats\assets\icons\pointsDark.png"
   inkscape:export-xdpi="96"
   inkscape:export-ydpi="96"
   xmlns:inkscape="http://www.inkscape.org/namespaces/inkscape"
   xmlns:sodipodi="http://sodipodi.sourceforge.net/DTD/sodipodi-0.dtd"
   xmlns="http://www.w3.org/2000/svg"
   xmlns:svg="http://www.w3.org/2000/svg">
  <defs
     id="defs10" />
  <sodipodi:namedview
     id="namedview8"
     pagecolor="#ffffff"
     bordercolor="#666666"
     borderopacity="1.0"
     inkscape:pageshadow="2"
     inkscape:pageopacity="0.0"
     inkscape:pagecheckerboard="0"
     inkscape:document-units="pt"
     showgrid="false"
     inkscape:zoom="1.2070313"
     inkscape:cx="341.33332"
     inkscape:cy="341.33332"
     inkscape:window-width="2400"
     inkscape:window-height="1284"
     inkscape:window-x="2391"
     inkscape:window-y="-9"
     inkscape:window-maximized="1"
     inkscape:current-layer="svg6" />
  <path
     fill="currentColor"
     d="m -228.91376,65.184259 c -193.6509,0.428949 -193.04324,1.200637 -192.81524,187.255471 -0.9188,204.01204 1.1376,204.926 194.9191,204.25404 202.428539,-0.68149 200.464359,-0.037 201.253519,-198.12918 C -26.631601,65.541399 -26.336751,65.719042 -228.91376,65.184259 Z m -13.47023,263.439951 c 4.31033,-0.0636 7.85729,3.37676 7.92516,7.68703 v 21.25126 c -0.0678,4.31028 -3.61483,7.75065 -7.92516,7.68703 h -78.91828 c -9.16632,0.10643 -16.46841,-7.63973 -15.82176,-16.78382 2.64807,-33.54861 13.97382,-54.68556 36.62532,-87.03396 19.45095,-27.80476 25.81394,-35.54895 25.81394,-59.3816 0,-16.11705 -1.70505,-23.11825 -11.63056,-23.11825 -8.94439,0 -12.08778,7.04883 -12.08778,21.6037 v 4.98181 c -0.0678,4.31405 -3.62066,7.75597 -7.9347,7.68703 h -23.71834 c -4.31404,0.069 -7.86685,-3.37298 -7.9347,-7.68703 v -3.87686 c 0,-26.00445 8.07758,-57.38125 53.75207,-57.38125 40.95939,0 52.93287,24.62326 52.93287,58.10519 0,33.89152 -11.84965,48.77978 -32.71989,77.45136 -11.01141,14.28816 -23.44211,33.88199 -25.15669,48.77026 z m 133.00373,-24.03269 c 0,33.49145 -11.71629,60.65801 -54.5141,60.65801 -41.51187,0 -52.17084,-28.1191 -52.17084,-60.43892 V 204.47914 c 0,-38.79713 18.65081,-60.21984 53.53298,-60.21984 35.05362,0 53.15196,21.5656 53.15196,58.39095 z m -53.4663,-124.39273 c -8.96344,0 -12.60216,7.14408 -12.60216,19.05088 v 110.44749 c 0,12.48785 3.41963,19.61288 12.60216,19.61288 9.18252,0 12.38307,-7.62035 12.38307,-20.26061 V 198.61146 c 0.019,-10.73517 -2.8481,-18.41267 -12.38307,-18.41267 z"
     id="path822"
     style="fill:#333333;stroke-width:0.952544"
     sodipodi:nodetypes="ccccccccccccsssccccssscccsssssssssssscs" />
  <path
     fill="currentColor"
     d="M 250.77554,60.213384 C 57.124641,60.642333 57.732301,61.414021 57.960301,247.46886 c -0.9188,204.01204 1.1376,204.926 194.919099,204.25404 202.42854,-0.68149 200.46436,-0.037 201.25352,-198.12918 C 453.0577,60.570524 453.35255,60.748167 250.77554,60.213384 Z M 237.30531,323.65334 c 4.31033,-0.0636 7.85729,3.37676 7.92516,7.68703 v 21.25126 c -0.0678,4.31028 -3.61483,7.75065 -7.92516,7.68703 h -78.91828 c -9.16632,0.10643 -16.46841,-7.63973 -15.82176,-16.78382 2.64807,-33.54861 13.97382,-54.68556 36.62532,-87.03396 19.45095,-27.80476 25.81394,-35.54895 25.81394,-59.3816 0,-16.11705 -1.70505,-23.11825 -11.63056,-23.11825 -8.94439,0 -12.08778,7.04883 -12.08778,21.6037 v 4.98181 c -0.0678,4.31405 -3.62066,7.75597 -7.9347,7.68703 h -23.71834 c -4.31404,0.069 -7.86685,-3.37298 -7.9347,-7.68703 v -3.87686 c 0,-26.00445 8.07758,-57.38125 53.75207,-57.38125 40.95939,0 52.93287,24.62326 52.93287,58.10519 0,33.89152 -11.84965,48.77978 -32.71989,77.45136 -11.01141,14.28816 -23.44211,33.88199 -25.15669,48.77026 z m 133.00373,-24.03269 c 0,33.49145 -11.71629,60.65801 -54.5141,60.65801 -41.51187,0 -52.17084,-28.1191 -52.17084,-60.43892 V 199.50827 c 0,-38.79713 18.65081,-60.21984 53.53298,-60.21984 35.05362,0 53.15196,21.5656 53.15196,58.39095 z m -53.4663,-124.39273 c -8.96344,0 -12.60216,7.14408 -12.60216,19.05088 v 110.44749 c 0,12.48785 3.41963,19.61288 12.60216,19.61288 9.18252,0 12.38307,-7.62035 12.38307,-20.26061 V 193.64059 c 0.019,-10.73517 -2.8481,-18.41267 -12.38307,-18.41267 z"
     id="path822-3"
     style="fill:#f2f2f2;stroke-width:0.952544"
     sodipodi:nodetypes="ccccccccccccsssccccssscccsssssssssssscs" />
</svg>
