<?xml version="1.0" encoding="UTF-8" standalone="no"?>
<svg
   version="1.0"
   width="512.000000pt"
   height="512.000000pt"
   viewBox="0 0 512.000000 512.000000"
   preserveAspectRatio="xMidYMid meet"
   id="svg6"
   sodipodi:docname="SETTINGS.svg"
   inkscape:version="1.1 (c68e22c387, 2021-05-23)"
   inkscape:export-filename="C:\Workspace\ALYSSON\myF1Stats\myF1Stats\assets\icons\settingsLight.png"
   inkscape:export-xdpi="96"
   inkscape:export-ydpi="96"
   xmlns:inkscape="http://www.inkscape.org/namespaces/inkscape"
   xmlns:sodipodi="http://sodipodi.sourceforge.net/DTD/sodipodi-0.dtd"
   xmlns="http://www.w3.org/2000/svg"
   xmlns:svg="http://www.w3.org/2000/svg">
  <defs
     id="defs10" />
  <sodipodi:namedview
     id="namedview8"
     pagecolor="#ffffff"
     bordercolor="#666666"
     borderopacity="1.0"
     inkscape:pageshadow="2"
     inkscape:pageopacity="0.0"
     inkscape:pagecheckerboard="0"
     inkscape:document-units="pt"
     showgrid="false"
     inkscape:zoom="1.2070313"
     inkscape:cx="341.33332"
     inkscape:cy="341.33332"
     inkscape:window-width="2400"
     inkscape:window-height="1284"
     inkscape:window-x="2391"
     inkscape:window-y="-9"
     inkscape:window-maximized="1"
     inkscape:current-layer="svg6" />
  <path
     fill="currentColor"
     d="M 439.94257,303.38787 406.0714,283.82845 c 3.41893,-18.44629 3.41893,-37.36963 0,-55.81592 l 33.87117,-19.55942 c 3.896,-2.22627 5.6452,-6.83785 4.3731,-11.13138 -8.82562,-28.3055 -23.85298,-53.90767 -43.49192,-75.21631 -3.02137,-3.25991 -7.95098,-4.05501 -11.76745,-1.82873 l -33.8712,19.55942 C 340.95284,127.5916 324.57381,118.12992 306.84311,111.92816 V 72.888819 c 0,-4.452552 -3.10088,-8.348534 -7.47392,-9.302652 -29.18012,-6.519808 -59.07582,-6.201769 -86.82476,0 -4.37304,0.954118 -7.47392,4.8501 -7.47392,9.302652 v 39.118851 c -17.65119,6.28127 -34.03022,15.74295 -48.34199,27.90795 L 122.93683,120.3562 c -3.89598,-2.22628 -8.74608,-1.51069 -11.76745,1.82873 -19.63894,21.22913 -34.6663,46.8313 -43.4919,75.21631 -1.35166,4.29353 0.47706,8.9051 4.37304,11.13138 l 33.87121,19.55942 c -3.41893,18.44629 -3.41893,37.36963 0,55.81592 l -33.87121,19.55942 c -3.89598,2.22628 -5.64519,6.83785 -4.37304,11.13138 8.8256,28.3055 23.85296,53.90768 43.4919,75.21631 3.02137,3.25991 7.95098,4.05501 11.76745,1.82873 l 33.8712,-19.55942 c 14.23226,12.24451 30.61129,21.70619 48.34199,27.90795 v 39.11885 c 0,4.45255 3.10088,8.34853 7.47392,9.30265 29.18012,6.51981 59.07582,6.20177 86.82476,0 4.37304,-0.95412 7.47392,-4.8501 7.47392,-9.30265 v -39.11885 c 17.65119,-6.28127 34.03022,-15.74295 48.34199,-27.90795 l 33.8712,19.55942 c 3.89598,2.22628 8.74608,1.51069 11.76745,-1.82873 19.63894,-21.22913 34.6663,-46.8313 43.49191,-75.21631 1.1926,-4.37304 -0.5566,-8.98461 -4.4526,-11.21089 z m -183.98576,16.1405 c -35.06384,0 -63.60788,-28.54404 -63.60788,-63.60788 0,-35.06384 28.54404,-63.60788 63.60788,-63.60788 35.06384,0 63.60788,28.54404 63.60788,63.60788 0,35.06384 -28.54404,63.60788 -63.60788,63.60788 z"
     id="path822"
     style="fill:#333333;stroke-width:0.795098" />
  <path
     fill="currentColor"
     d="m -105.61078,346.26165 -33.8712,-19.55942 c 3.41893,-18.44629 3.41893,-37.36963 0,-55.81592 l 33.8712,-19.55942 c 3.89598,-2.22627 5.645205,-6.83785 4.37304,-11.13138 -8.82559,-28.3055 -23.85295,-53.90767 -43.49189,-75.21631 -3.02137,-3.25991 -7.95098,-4.05501 -11.76745,-1.82873 l -33.8712,19.55942 c -14.23226,-12.24451 -30.61129,-21.70619 -48.34199,-27.90795 v -39.03933 c 0,-4.45256 -3.10088,-8.34854 -7.47392,-9.30266 -29.18012,-6.519804 -59.07582,-6.20177 -86.82476,0 -4.37304,0.95412 -7.47392,4.8501 -7.47392,9.30266 v 39.11884 c -17.65119,6.28127 -34.03022,15.74295 -48.34199,27.90795 l -33.79169,-19.55942 c -3.89598,-2.22628 -8.74608,-1.51069 -11.76745,1.82873 -19.63894,21.22913 -34.6663,46.8313 -43.4919,75.21631 -1.35166,4.29353 0.47706,8.9051 4.37304,11.13138 l 33.87121,19.55942 c -3.41893,18.44629 -3.41893,37.36963 0,55.81592 l -33.87121,19.55942 c -3.89598,2.22628 -5.64519,6.83785 -4.37304,11.13138 8.8256,28.3055 23.85296,53.90768 43.4919,75.21631 3.02137,3.25991 7.95098,4.05501 11.76745,1.82873 l 33.8712,-19.55942 c 14.23226,12.24451 30.61129,21.70619 48.34199,27.90795 v 39.11885 c 0,4.45255 3.10088,8.34853 7.47392,9.30265 29.18012,6.51981 59.07582,6.20177 86.82476,0 4.37304,-0.95412 7.47392,-4.8501 7.47392,-9.30265 v -39.11885 c 17.65119,-6.28127 34.03022,-15.74295 48.34199,-27.90795 l 33.8712,19.55942 c 3.89598,2.22628 8.74608,1.51069 11.76745,-1.82873 19.63894,-21.22913 34.6663,-46.8313 43.49189,-75.21631 1.192655,-4.37304 -0.55657,-8.98461 -4.45255,-11.21089 z m -183.98579,16.1405 c -35.06384,0 -63.60788,-28.54404 -63.60788,-63.60788 0,-35.06384 28.54404,-63.60788 63.60788,-63.60788 35.06384,0 63.60788,28.54404 63.60788,63.60788 0,35.06384 -28.54404,63.60788 -63.60788,63.60788 z"
     id="path822-2"
     style="fill:#f2f2f2;stroke-width:0.795098" />
</svg>
