<?xml version="1.0" encoding="UTF-8" standalone="no"?>
<svg
   version="1.0"
   width="512.000000pt"
   height="512.000000pt"
   viewBox="0 0 512.000000 512.000000"
   preserveAspectRatio="xMidYMid meet"
   id="svg6"
   sodipodi:docname="THEME.svg"
   inkscape:version="1.1 (c68e22c387, 2021-05-23)"
   inkscape:export-filename="C:\Workspace\ALYSSON\myF1Stats\myF1Stats\assets\icons\Dark.png"
   inkscape:export-xdpi="96"
   inkscape:export-ydpi="96"
   xmlns:inkscape="http://www.inkscape.org/namespaces/inkscape"
   xmlns:sodipodi="http://sodipodi.sourceforge.net/DTD/sodipodi-0.dtd"
   xmlns="http://www.w3.org/2000/svg"
   xmlns:svg="http://www.w3.org/2000/svg">
  <defs
     id="defs10" />
  <sodipodi:namedview
     id="namedview8"
     pagecolor="#ffffff"
     bordercolor="#666666"
     borderopacity="1.0"
     inkscape:pageshadow="2"
     inkscape:pageopacity="0.0"
     inkscape:pagecheckerboard="0"
     inkscape:document-units="pt"
     showgrid="false"
     inkscape:zoom="1.2070313"
     inkscape:cx="341.33332"
     inkscape:cy="341.33332"
     inkscape:window-width="2400"
     inkscape:window-height="1284"
     inkscape:window-x="2391"
     inkscape:window-y="-9"
     inkscape:window-maximized="1"
     inkscape:current-layer="svg6" />
  <path
     fill="currentColor"
     d="m 774.22311,133.90291 c -40.57379,0 -73.63107,33.05728 -73.63107,73.63107 0,40.57379 33.05728,73.63107 73.63107,73.63107 40.57379,0 73.63107,-33.05728 73.63107,-73.63107 0,-40.57379 -33.05728,-73.63107 -73.63107,-73.63107 z m 188.98641,61.74272 -72.63398,-36.27864 25.69417,-77.005827 c 3.45146,-10.43106 -6.44272,-20.32524 -16.79708,-16.79708 L 822.4668,91.258253 786.11146,18.547577 c -4.90874,-9.8174754 -18.86796,-9.8174754 -23.7767,0 L 726.05612,91.181553 648.9736,65.487383 c -10.43107,-3.45146 -20.32525,6.44272 -16.79709,16.79709 l 25.69417,77.005817 -72.63398,36.35534 c -9.81748,4.90874 -9.81748,18.86796 0,23.7767 l 72.63398,36.27864 -25.69417,77.08252 c -3.45146,10.43107 6.44272,20.32525 16.79709,16.79709 l 77.00582,-25.69417 36.27864,72.63398 c 4.90874,9.81747 18.86796,9.81747 23.7767,0 l 36.27864,-72.63398 77.00583,25.69417 c 10.43107,3.45146 20.32524,-6.44272 16.79708,-16.79709 l -25.69417,-77.00582 72.63398,-36.27864 c 9.97087,-4.98544 9.97087,-18.94466 0.1534,-23.8534 z M 843.63573,276.9466 c -38.27281,38.27282 -100.55242,38.27282 -138.82524,0 -38.27282,-38.27281 -38.27282,-100.55243 0,-138.82524 38.27282,-38.272817 100.55243,-38.272817 138.82524,0 38.27282,38.27281 38.27282,100.55243 0,138.82524 z"
     id="path902"
     style="fill:#333333;stroke-width:0.76699" />
  <path
     fill="currentColor"
     d="m 277.00243,453.59223 c 60.94641,0 116.60953,-27.72852 153.48672,-73.1647 5.4554,-6.72122 -0.49321,-16.54063 -8.92407,-14.93519 -95.86543,18.25721 -183.90126,-55.24555 -183.90126,-152.01789 0,-55.74417 29.84106,-107.00469 78.34069,-134.605083 7.47609,-4.254407 5.59587,-15.588945 -2.89905,-17.158106 A 199.25633,199.25633 0 0 0 277.00243,58.407766 C 167.93383,58.407766 79.410201,146.79247 79.410201,256 c 0,109.0686 88.384699,197.59223 197.592229,197.59223 z"
     id="path911"
     style="fill:#f2f2f2;stroke-width:0.771845" />
</svg>
