<?xml version="1.0" encoding="UTF-8" standalone="no"?>
<svg
   version="1.0"
   width="512.000000pt"
   height="512.000000pt"
   viewBox="0 0 512.000000 512.000000"
   preserveAspectRatio="xMidYMid meet"
   id="svg6"
   sodipodi:docname="UP.svg"
   inkscape:version="1.1 (c68e22c387, 2021-05-23)"
   inkscape:export-filename="C:\Workspace\ALYSSON\myF1Stats\myF1Stats\assets\icons\upDark.png"
   inkscape:export-xdpi="96"
   inkscape:export-ydpi="96"
   xmlns:inkscape="http://www.inkscape.org/namespaces/inkscape"
   xmlns:sodipodi="http://sodipodi.sourceforge.net/DTD/sodipodi-0.dtd"
   xmlns="http://www.w3.org/2000/svg"
   xmlns:svg="http://www.w3.org/2000/svg">
  <defs
     id="defs10" />
  <sodipodi:namedview
     id="namedview8"
     pagecolor="#ffffff"
     bordercolor="#666666"
     borderopacity="1.0"
     inkscape:pageshadow="2"
     inkscape:pageopacity="0.0"
     inkscape:pagecheckerboard="0"
     inkscape:document-units="pt"
     showgrid="false"
     inkscape:zoom="1.2070313"
     inkscape:cx="341.33332"
     inkscape:cy="341.33332"
     inkscape:window-width="2400"
     inkscape:window-height="1284"
     inkscape:window-x="2391"
     inkscape:window-y="-9"
     inkscape:window-maximized="1"
     inkscape:current-layer="svg6" />
  <path
     fill="currentColor"
     d="m 282.93974,103.38443 215.51792,215.51792 c 14.89609,14.89609 14.89609,38.98339 0,53.72101 l -35.81401,35.81401 c -14.89609,14.89609 -38.98339,14.89609 -53.72101,0 L 256,255.83166 103.23583,408.59584 c -14.896093,14.89609 -38.98339,14.89609 -53.721013,0 L 13.542341,372.78183 c -14.8960913,-14.89609 -14.8960913,-38.98339 0,-53.72101 L 229.06026,103.5429 c 14.89609,-15.054561 38.98339,-15.054561 53.87948,-0.15847 z"
     id="path822"
     style="fill:#f2f2f2;stroke-width:1.58469" />
  <path
     fill="currentColor"
     d="m 836.57077,-106.01363 215.51793,215.51792 c 14.8961,14.89609 14.8961,38.98339 0,53.72101 l -35.814,35.81401 c -14.8961,14.89609 -38.98341,14.89609 -53.72103,0 L 809.63103,46.433602 656.86686,199.19778 c -14.89609,14.89609 -38.98339,14.89609 -53.72101,0 l -35.97248,-35.81401 c -14.89609,-14.89609 -14.89609,-38.98339 0,-53.72101 l 215.51792,-215.51792 c 14.89609,-15.05456 38.98339,-15.05456 53.87948,-0.15847 z"
     id="path822-1"
     style="fill:#333333;stroke-width:1.58469" />
</svg>
