<?xml version="1.0" encoding="UTF-8" standalone="no"?>
<svg
   version="1.0"
   width="512.000000pt"
   height="512.000000pt"
   viewBox="0 0 512.000000 512.000000"
   preserveAspectRatio="xMidYMid meet"
   id="svg6"
   sodipodi:docname="WINS.svg"
   inkscape:version="1.1 (c68e22c387, 2021-05-23)"
   inkscape:export-filename="C:\Workspace\ALYSSON\myF1Stats\myF1Stats\assets\icons\winsDark.png"
   inkscape:export-xdpi="96"
   inkscape:export-ydpi="96"
   xmlns:inkscape="http://www.inkscape.org/namespaces/inkscape"
   xmlns:sodipodi="http://sodipodi.sourceforge.net/DTD/sodipodi-0.dtd"
   xmlns="http://www.w3.org/2000/svg"
   xmlns:svg="http://www.w3.org/2000/svg">
  <defs
     id="defs10" />
  <sodipodi:namedview
     id="namedview8"
     pagecolor="#ffffff"
     bordercolor="#666666"
     borderopacity="1.0"
     inkscape:pageshadow="2"
     inkscape:pageopacity="0.0"
     inkscape:pagecheckerboard="0"
     inkscape:document-units="pt"
     showgrid="false"
     inkscape:zoom="1.2070313"
     inkscape:cx="341.33332"
     inkscape:cy="341.33332"
     inkscape:window-width="2400"
     inkscape:window-height="1284"
     inkscape:window-x="2391"
     inkscape:window-y="-9"
     inkscape:window-maximized="1"
     inkscape:current-layer="svg6" />
  <path
     fill="currentColor"
     d="m 808.37409,111.33462 v 52.39721 c 22.29074,4.53955 42.10474,12.00289 62.85819,17.15797 v -52.47415 c -22.20534,-4.46261 -42.19015,-11.92594 -62.85819,-17.08103 z m 190.7097,-94.638119 c -29.29396,12.23371 -65.33493,24.54436 -99.92403,24.54436 -45.69175,0 -83.52623,-26.77567 -141.0893,-26.77567 -21.35129,0 -40.39664,3.38543 -58.07551,9.23299 2.39135,-5.61674 3.50162,-11.69512 3.07459,-18.1582078 -1.5373,-21.8514102 -21.43669,-39.3940802 -45.77716,-40.3173802 -27.32964,-1.00024 -49.7912,18.6968 -49.7912,43.0872682 0,14.6188998 8.11349,27.5450898 20.49724,35.3161798 V 340.69744 c 0,10.23323 9.13835,18.46597 20.49723,18.46597 h 13.66482 c 11.35889,0 20.49724,-8.23274 20.49724,-18.46597 V 268.0646 c 24.16966,-9.30993 54.31767,-17.00409 97.70349,-17.00409 45.77716,0 83.52623,26.77567 141.08931,26.77567 41.16529,0 74.04627,-12.54148 104.62129,-31.4691 7.4303,-4.6165 11.7859,-12.15677 11.7859,-20.31258 V 39.009551 c 0.085,-17.92738 -20.668,-29.8533298 -38.77391,-22.31305 z M 745.5159,215.66739 c -22.03452,2.07742 -42.70257,6.30921 -62.85819,12.7723 v -54.24381 c 22.37615,-7.15556 40.56744,-11.54123 62.85819,-13.38783 z M 996.94867,112.18098 c -20.15562,7.54027 -39.54259,15.00361 -62.8582,18.38904 v 54.70545 c 21.18048,-2.61601 43.89825,-9.0791 62.8582,-20.00481 v 54.24381 c -21.4367,12.38759 -41.4215,19.00457 -62.8582,20.85116 v -55.09016 c -23.05939,2.84684 -40.90907,1.15412 -62.85819,-4.30873 v 51.85862 c -20.41183,-5.69368 -40.39663,-12.84924 -62.85819,-16.38855 v -52.70498 c -16.82481,-3.38543 -34.84531,-5.23202 -62.85819,-2.92378 v -53.8591 c -19.13075,2.38519 -38.0907,7.84804 -62.85819,16.08079 V 68.785941 c 28.35451,-9.38687 42.78798,-15.23443 62.85819,-16.92715 v 55.090159 c 23.05939,-2.84683 41.33609,-1.00024 62.85819,4.38567 V 59.476011 c 20.24103,5.69367 40.31123,12.84924 62.85819,16.38855 v 52.628029 c 20.24102,4.07791 40.65285,5.30897 62.85819,2.07743 V 75.249031 c 23.0594,-3.6932 44.66689,-10.46405 62.8582,-17.31185 z"
     id="path822"
     style="fill:#333333;stroke-width:0.81063" />
  <path
     fill="currentColor"
     d="m 241.6945,205.15986 v 52.39721 c 22.29074,4.53955 42.10474,12.00289 62.85819,17.15797 v -52.47415 c -22.20534,-4.46261 -42.19015,-11.92594 -62.85819,-17.08103 z m 190.7097,-94.63812 c -29.29396,12.23371 -65.33493,24.54436 -99.92403,24.54436 -45.69175,0 -83.52623,-26.77567 -141.0893,-26.77567 -21.35129,0 -40.39664,3.38543 -58.07551,9.23299 2.39135,-5.61674 3.50162,-11.69512 3.07459,-18.158208 -1.5373,-21.85141 -21.43669,-39.39408 -45.777156,-40.31738 -27.32964,-1.00024 -49.7912,18.6968 -49.7912,43.087268 0,14.6189 8.11349,27.54509 20.49724,35.31618 v 297.0714 c 0,10.23323 9.13835,18.46597 20.49723,18.46597 h 13.66482 c 11.358886,0 20.497236,-8.23274 20.497236,-18.46597 v -72.63284 c 24.16966,-9.30993 54.31767,-17.00409 97.70349,-17.00409 45.77716,0 83.52623,26.77567 141.08931,26.77567 41.16529,0 74.04627,-12.54148 104.62131,-31.4691 7.43025,-4.6165 11.78591,-12.15677 11.78591,-20.31258 V 132.83479 c 0.0854,-17.92738 -20.66804,-29.85333 -38.77394,-22.31305 z M 178.83631,309.49263 c -22.03452,2.07742 -42.70257,6.30921 -62.85819,12.7723 v -54.24381 c 22.37615,-7.15556 40.56744,-11.54123 62.85819,-13.38783 z M 430.26908,206.00622 c -20.15562,7.54027 -39.54259,15.00361 -62.8582,18.38904 v 54.70545 c 21.18048,-2.61601 43.89825,-9.0791 62.8582,-20.00481 v 54.24381 c -21.4367,12.38759 -41.4215,19.00457 -62.8582,20.85116 v -55.09016 c -23.05939,2.84684 -40.90907,1.15412 -62.85819,-4.30873 v 51.85862 c -20.41183,-5.69368 -40.39663,-12.84924 -62.85819,-16.38855 v -52.70498 c -16.82481,-3.38543 -34.84531,-5.23202 -62.85819,-2.92378 v -53.8591 c -19.13075,2.38519 -38.0907,7.84804 -62.85819,16.08079 v -54.2438 c 28.35451,-9.38687 42.78798,-15.23443 62.85819,-16.92715 v 55.09016 c 23.05939,-2.84683 41.33609,-1.00024 62.85819,4.38567 v -51.85861 c 20.24103,5.69367 40.31123,12.84924 62.85819,16.38855 v 52.62803 c 20.24102,4.07791 40.65285,5.30897 62.85819,2.07743 v -55.32099 c 23.0594,-3.6932 44.66689,-10.46405 62.8582,-17.31185 z"
     id="path822-4"
     style="fill:#f2f2f2;stroke-width:0.81063" />
</svg>
